<?xml version="1.0" encoding="UTF-8"?>
<svg xmlns="http://www.w3.org/2000/svg" viewBox="0 0 24 24" width="48" height="48" aria-hidden="true" focusable="false">
  <path fill="currentColor" d="M12 0C5.37 0 0 5.37 0 12c0 5.3 3.438 9.8 8.207 11.387.6.113.793-.263.793-.583 0-.288-.01-1.05-.015-2.06-3.338.724-4.042-1.61-4.042-1.61-.546-1.387-1.333-1.757-1.333-1.757-1.09-.745.083-.73.083-.73 1.205.085 1.84 1.238 1.84 1.238 1.07 1.835 2.807 1.305 3.492.998.108-.775.42-1.305.762-1.605-2.665-.305-5.467-1.335-5.467-5.93 0-1.31.468-2.38 1.235-3.22-.123-.303-.535-1.523.117-3.176 0 0 1.008-.322 3.3 1.23.957-.266 1.983-.399 3.004-.404 1.02.005 2.048.138 3.006.404 2.29-1.552 3.296-1.23 3.296-1.23.654 1.653.242 2.873.119 3.176.77.84 1.233 1.91 1.233 3.22 0 4.61-2.807 5.62-5.48 5.92.431.37.815 1.096.815 2.21 0 1.595-.014 2.88-.014 3.27 0 .323.192.7.8.582C20.565 21.796 24 17.296 24 12c0-6.63-5.37-12-12-12z"/>
</svg>